<?xml version="1.0" encoding="utf-8"?>
<!-- Generator: Adobe Illustrator 21.0.0, SVG Export Plug-In . SVG Version: 6.00 Build 0)  -->
<svg version="1.1" id="Layer_1" xmlns="http://www.w3.org/2000/svg" xmlns:xlink="http://www.w3.org/1999/xlink" x="0px" y="0px"
	 viewBox="0 0 76.7 76.7" style="enable-background:new 0 0 76.7 76.7;" xml:space="preserve">
<style type="text/css">
	.st0{fill:#488CFF;}
	.st1{opacity:0.13;clip-path:url(#SVGID_2_);}
	.st2{fill:#FFFFFF;}
	.st3{fill:url(#SVGID_3_);}
</style>
<rect class="st0" width="76.7" height="76.7"/>
<g>
	<defs>
		<rect id="SVGID_1_" width="76.7" height="76.7"/>
	</defs>
	<clipPath id="SVGID_2_">
		<use xlink:href="#SVGID_1_"  style="overflow:visible;"/>
	</clipPath>
	<g class="st1">
		<path d="M60.8,35.4L33.5,8c-4.1,0.7-7.9,2.2-11.2,4.3l22.4,21l-23.7-0.7l-4.1,9.4l27.4,27.4c4.1-0.7,7.9-2.2,11.2-4.3l-22.4-21
			l23.7,0.7L60.8,35.4z"/>
		<path d="M61.5,36.1L34.2,8.7c-4.1,0.7-7.9,2.2-11.2,4.3l22.4,21l-23.7-0.7l-4.1,9.4l27.4,27.4c4.1-0.7,7.9-2.2,11.2-4.3l-22.4-21
			l23.7,0.7L61.5,36.1z"/>
		<path d="M62.2,36.8L34.9,9.4c-4.1,0.7-7.9,2.2-11.2,4.3l22.4,21l-23.7-0.7l-4.1,9.4l27.4,27.4c4.1-0.7,7.9-2.2,11.2-4.3l-22.4-21
			l23.7,0.7L62.2,36.8z"/>
		<path d="M62.9,37.5L35.6,10.1c-4.1,0.7-7.9,2.2-11.2,4.3l22.4,21L23,34.8L19,44.2l27.4,27.4c4.1-0.7,7.9-2.2,11.2-4.3l-22.4-21
			l23.7,0.7L62.9,37.5z"/>
		<path d="M63.6,38.2L36.3,10.8c-4.1,0.7-7.9,2.2-11.2,4.3l22.4,21l-23.7-0.7l-4.1,9.4L47,72.2c4.1-0.7,7.9-2.2,11.2-4.3l-22.4-21
			l23.7,0.7L63.6,38.2z"/>
		<path d="M64.3,38.9L37,11.5c-4.1,0.7-7.9,2.2-11.2,4.3l22.4,21l-23.7-0.7l-4.1,9.4l27.4,27.4c4.1-0.7,7.9-2.2,11.2-4.3l-22.4-21
			l23.7,0.7L64.3,38.9z"/>
		<path d="M65,39.6L37.7,12.2c-4.1,0.7-7.9,2.2-11.2,4.3l22.4,21l-23.7-0.7l-4.1,9.4l27.4,27.4c4.1-0.7,7.9-2.2,11.2-4.3l-22.4-21
			L61,49L65,39.6z"/>
		<path d="M65.7,40.3L38.4,12.9c-4.1,0.7-7.9,2.2-11.2,4.3l22.4,21l-23.7-0.7L21.8,47l27.4,27.4c4.1-0.7,7.9-2.2,11.2-4.3L38,49
			l23.7,0.7L65.7,40.3z"/>
		<path d="M66.4,41L39.1,13.6c-4.1,0.7-7.9,2.2-11.2,4.3l22.4,21l-23.7-0.7l-4.1,9.4L49.8,75c4.1-0.7,7.9-2.2,11.2-4.3l-22.4-21
			l23.7,0.7L66.4,41z"/>
		<path d="M67.1,41.7L39.8,14.3c-4.1,0.7-7.9,2.2-11.2,4.3l22.4,21L27.2,39l-4.1,9.4l27.4,27.4c4.1-0.7,7.9-2.2,11.2-4.3l-22.4-21
			l23.7,0.7L67.1,41.7z"/>
		<path d="M67.8,42.4L40.5,15c-4.1,0.7-7.9,2.2-11.2,4.3l22.4,21l-23.7-0.7l-4.1,9.4l27.4,27.4c4.1-0.7,7.9-2.2,11.2-4.3l-22.4-21
			l23.7,0.7L67.8,42.4z"/>
		<path d="M68.5,43.1L41.2,15.7c-4.1,0.7-7.9,2.2-11.2,4.3l22.4,21l-23.7-0.7l-4.1,9.4l27.4,27.4c4.1-0.7,7.9-2.2,11.2-4.3l-22.4-21
			l23.7,0.7L68.5,43.1z"/>
		<path d="M69.2,43.8L41.9,16.5c-4.1,0.7-7.9,2.2-11.2,4.3l22.4,21l-23.7-0.7l-4.1,9.4l27.4,27.4c4.1-0.7,7.9-2.2,11.2-4.3l-22.4-21
			l23.7,0.7L69.2,43.8z"/>
		<path d="M69.9,44.5L42.6,17.2c-4.1,0.7-7.9,2.2-11.2,4.3l22.4,21L30,41.8L26,51.2l27.4,27.4c4.1-0.7,7.9-2.2,11.2-4.3l-22.4-21
			l23.7,0.7L69.9,44.5z"/>
		<path d="M70.6,45.2L43.3,17.9c-4.1,0.7-7.9,2.2-11.2,4.3l22.4,21l-23.7-0.7l-4.1,9.4L54,79.2c4.1-0.7,7.9-2.2,11.2-4.3l-22.4-21
			l23.7,0.7L70.6,45.2z"/>
		<path d="M71.3,45.9L44,18.6c-4.1,0.7-7.9,2.2-11.2,4.3l22.4,21l-23.7-0.7l-4.1,9.4l27.4,27.4c4.1-0.7,7.9-2.2,11.2-4.3l-22.4-21
			l23.7,0.7L71.3,45.9z"/>
		<path d="M72,46.6L44.7,19.3c-4.1,0.7-7.9,2.2-11.2,4.3l22.4,21l-23.7-0.7l-4.1,9.4l27.4,27.4c4.1-0.7,7.9-2.2,11.2-4.3l-22.4-21
			L68,56L72,46.6z"/>
		<path d="M72.7,47.3L45.4,20c-4.1,0.7-7.9,2.2-11.2,4.3l22.4,21l-23.7-0.7L28.8,54l27.4,27.4c4.1-0.7,7.9-2.2,11.2-4.3L45,56
			l23.7,0.7L72.7,47.3z"/>
		<path d="M73.4,48L46.1,20.7c-4.1,0.7-7.9,2.2-11.2,4.3l22.4,21l-23.7-0.7l-4.1,9.4l27.4,27.4c4.1-0.7,7.9-2.2,11.2-4.3l-22.4-21
			l23.7,0.7L73.4,48z"/>
		<path d="M74.1,48.7L46.8,21.4c-4.1,0.7-7.9,2.2-11.2,4.3l22.4,21L34.3,46l-4.1,9.4l27.4,27.4c4.1-0.7,7.9-2.2,11.2-4.3l-22.4-21
			l23.7,0.7L74.1,48.7z"/>
		<path d="M74.8,49.4L47.5,22.1c-4.1,0.7-7.9,2.2-11.2,4.3l22.4,21L35,46.7l-4.1,9.4l27.4,27.4c4.1-0.7,7.9-2.2,11.2-4.3l-22.4-21
			l23.7,0.7L74.8,49.4z"/>
		<path d="M75.5,50.1L48.2,22.8c-4.1,0.7-7.9,2.2-11.2,4.3l22.4,21l-23.7-0.7l-4.1,9.4L59,84.2c4.1-0.7,7.9-2.2,11.2-4.3l-22.4-21
			l23.7,0.7L75.5,50.1z"/>
		<path d="M76.3,50.8L48.9,23.5c-4.1,0.7-7.9,2.2-11.2,4.3l22.4,21l-23.7-0.7l-4.1,9.4l27.4,27.4c4.1-0.7,7.9-2.2,11.2-4.3l-22.4-21
			l23.7,0.7L76.3,50.8z"/>
		<path d="M77,51.5L49.6,24.2c-4.1,0.7-7.9,2.2-11.2,4.3l22.4,21l-23.7-0.7L33,58.2l27.4,27.4c4.1-0.7,7.9-2.2,11.2-4.3l-22.4-21
			l23.7,0.7L77,51.5z"/>
		<path d="M77.7,52.2L50.3,24.9c-4.1,0.7-7.9,2.2-11.2,4.3l22.4,21l-23.7-0.7l-4.1,9.4l27.4,27.4c4.1-0.7,7.9-2.2,11.2-4.3l-22.4-21
			l23.7,0.7L77.7,52.2z"/>
		<path d="M78.4,52.9L51,25.6c-4.1,0.7-7.9,2.2-11.2,4.3l22.4,21l-23.7-0.7l-4.1,9.4L61.8,87c4.1-0.7,7.9-2.2,11.2-4.3l-22.4-21
			l23.7,0.7L78.4,52.9z"/>
		<path d="M79.1,53.6L51.7,26.3c-4.1,0.7-7.9,2.2-11.2,4.3l22.4,21l-23.7-0.7l-4.1,9.4l27.4,27.4c4.1-0.7,7.9-2.2,11.2-4.3l-22.4-21
			L75,63L79.1,53.6z"/>
		<path d="M79.8,54.3L52.4,27c-4.1,0.7-7.9,2.2-11.2,4.3l22.4,21l-23.7-0.7L35.8,61l27.4,27.4c4.1-0.7,7.9-2.2,11.2-4.3L52,63
			l23.7,0.7L79.8,54.3z"/>
		<path d="M80.5,55L53.1,27.7c-4.1,0.7-7.9,2.2-11.2,4.3l22.4,21l-23.7-0.7l-4.1,9.4l27.4,27.4c4.1-0.7,7.9-2.2,11.2-4.3l-22.4-21
			l23.7,0.7L80.5,55z"/>
		<path d="M81.2,55.7L53.8,28.4c-4.1,0.7-7.9,2.2-11.2,4.3l22.4,21L41.3,53l-4.1,9.4l27.4,27.4c4.1-0.7,7.9-2.2,11.2-4.3l-22.4-21
			l23.7,0.7L81.2,55.7z"/>
		<path d="M81.9,56.4L54.5,29.1c-4.1,0.7-7.9,2.2-11.2,4.3l22.4,21L42,53.7l-4.1,9.4l27.4,27.4c4.1-0.7,7.9-2.2,11.2-4.3l-22.4-21
			l23.7,0.7L81.9,56.4z"/>
		<path d="M82.6,57.1L55.2,29.8c-4.1,0.7-7.9,2.2-11.2,4.3l22.4,21l-23.7-0.7l-4.1,9.4L66,91.2c4.1-0.7,7.9-2.2,11.2-4.3l-22.4-21
			l23.7,0.7L82.6,57.1z"/>
		<path d="M83.3,57.8L55.9,30.5c-4.1,0.7-7.9,2.2-11.2,4.3l22.4,21l-23.7-0.7l-4.1,9.4l27.4,27.4c4.1-0.7,7.9-2.2,11.2-4.3l-22.4-21
			l23.7,0.7L83.3,57.8z"/>
		<path d="M84,58.5L56.6,31.2c-4.1,0.7-7.9,2.2-11.2,4.3l22.4,21l-23.7-0.7L40,65.2l27.4,27.4c4.1-0.7,7.9-2.2,11.2-4.3l-22.4-21
			l23.7,0.7L84,58.5z"/>
		<path d="M84.7,59.2L57.3,31.9c-4.1,0.7-7.9,2.2-11.2,4.3l22.4,21l-23.7-0.7l-4.1,9.4l27.4,27.4c4.1-0.7,7.9-2.2,11.2-4.3L56.9,68
			l23.7,0.7L84.7,59.2z"/>
		<path d="M85.4,60L58,32.6c-4.1,0.7-7.9,2.2-11.2,4.3l22.4,21l-23.7-0.7l-4.1,9.4L68.8,94c4.1-0.7,7.9-2.2,11.2-4.3l-22.4-21
			l23.7,0.7L85.4,60z"/>
		<path d="M86.1,60.7L58.7,33.3c-4.1,0.7-7.9,2.2-11.2,4.3l22.4,21l-23.7-0.7l-4.1,9.4l27.4,27.4c4.1-0.7,7.9-2.2,11.2-4.3l-22.4-21
			L82,70L86.1,60.7z"/>
		<path d="M86.8,61.4L59.4,34c-4.1,0.7-7.9,2.2-11.2,4.3l22.4,21l-23.7-0.7L42.8,68l27.4,27.4c4.1-0.7,7.9-2.2,11.2-4.3l-22.4-21
			l23.7,0.7L86.8,61.4z"/>
		<path d="M87.5,62.1L60.1,34.7c-4.1,0.7-7.9,2.2-11.2,4.3l22.4,21l-23.7-0.7l-4.1,9.4l27.4,27.4c4.1-0.7,7.9-2.2,11.2-4.3l-22.4-21
			l23.7,0.7L87.5,62.1z"/>
		<path d="M88.2,62.8L60.8,35.4c-4.1,0.7-7.9,2.2-11.2,4.3l22.4,21l-23.7-0.7l-4.1,9.4l27.4,27.4c4.1-0.7,7.9-2.2,11.2-4.3l-22.4-21
			l23.7,0.7L88.2,62.8z"/>
		<path d="M88.9,63.5L61.5,36.1c-4.1,0.7-7.9,2.2-11.2,4.3l22.4,21L49,60.8l-4.1,9.4l27.4,27.4c4.1-0.7,7.9-2.2,11.2-4.3l-22.4-21
			l23.7,0.7L88.9,63.5z"/>
		<path d="M89.6,64.2L62.2,36.8c-4.1,0.7-7.9,2.2-11.2,4.3l22.4,21l-23.7-0.7l-4.1,9.4L73,98.2c4.1-0.7,7.9-2.2,11.2-4.3l-22.4-21
			l23.7,0.7L89.6,64.2z"/>
		<path d="M90.3,64.9L62.9,37.5c-4.1,0.7-7.9,2.2-11.2,4.3l22.4,21l-23.7-0.7l-4.1,9.4l27.4,27.4c4.1-0.7,7.9-2.2,11.2-4.3l-22.4-21
			l23.7,0.7L90.3,64.9z"/>
		<path d="M91,65.6L63.6,38.2c-4.1,0.7-7.9,2.2-11.2,4.3l22.4,21l-23.7-0.7L47,72.2l27.4,27.4c4.1-0.7,7.9-2.2,11.2-4.3l-22.4-21
			L86.9,75L91,65.6z"/>
		<path d="M91.7,66.3L64.3,38.9c-4.1,0.7-7.9,2.2-11.2,4.3l22.4,21l-23.7-0.7L47.7,73l27.4,27.4c4.1-0.7,7.9-2.2,11.2-4.3L64,75
			l23.7,0.7L91.7,66.3z"/>
		<path d="M92.4,67L65,39.6c-4.1,0.7-7.9,2.2-11.2,4.3l22.4,21l-23.7-0.7l-4.1,9.4L75.8,101c4.1-0.7,7.9-2.2,11.2-4.3l-22.4-21
			l23.7,0.7L92.4,67z"/>
		<path d="M93.1,67.7L65.7,40.3c-4.1,0.7-7.9,2.2-11.2,4.3l22.4,21L53.2,65l-4.1,9.4l27.4,27.4c4.1-0.7,7.9-2.2,11.2-4.3l-22.4-21
			L89,77.1L93.1,67.7z"/>
		<path d="M93.8,68.4L66.4,41c-4.1,0.7-7.9,2.2-11.2,4.3l22.4,21l-23.7-0.7l-4.1,9.4l27.4,27.4c4.1-0.7,7.9-2.2,11.2-4.3l-22.4-21
			l23.7,0.7L93.8,68.4z"/>
		<path d="M94.5,69.1L67.2,41.7c-4.1,0.7-7.9,2.2-11.2,4.3l22.4,21l-23.7-0.7l-4.1,9.4l27.4,27.4c4.1-0.7,7.9-2.2,11.2-4.3l-22.4-21
			l23.7,0.7L94.5,69.1z"/>
		<path d="M95.2,69.8L67.9,42.4c-4.1,0.7-7.9,2.2-11.2,4.3l22.4,21l-23.7-0.7l-4.1,9.4l27.4,27.4c4.1-0.7,7.9-2.2,11.2-4.3l-22.4-21
			l23.7,0.7L95.2,69.8z"/>
		<path d="M95.9,70.5L68.6,43.1c-4.1,0.7-7.9,2.2-11.2,4.3l22.4,21L56,67.8L52,77.2l27.4,27.4c4.1-0.7,7.9-2.2,11.2-4.3l-22.4-21
			l23.7,0.7L95.9,70.5z"/>
		<path d="M96.6,71.2L69.3,43.8c-4.1,0.7-7.9,2.2-11.2,4.3l22.4,21l-23.7-0.7l-4.1,9.4L80,105.2c4.1-0.7,7.9-2.2,11.2-4.3l-22.4-21
			l23.7,0.7L96.6,71.2z"/>
		<path d="M97.3,71.9L70,44.5c-4.1,0.7-7.9,2.2-11.2,4.3l22.4,21l-23.7-0.7l-4.1,9.4l27.4,27.4c4.1-0.7,7.9-2.2,11.2-4.3l-22.4-21
			l23.7,0.7L97.3,71.9z"/>
		<path d="M98,72.6L70.7,45.2c-4.1,0.7-7.9,2.2-11.2,4.3l22.4,21l-23.7-0.7l-4.1,9.4l27.4,27.4c4.1-0.7,7.9-2.2,11.2-4.3l-22.4-21
			L94,82L98,72.6z"/>
		<path d="M98.7,73.3L71.4,45.9c-4.1,0.7-7.9,2.2-11.2,4.3l22.4,21l-23.7-0.7L54.8,80l27.4,27.4c4.1-0.7,7.9-2.2,11.2-4.3L71,82
			l23.7,0.7L98.7,73.3z"/>
		<path d="M99.4,74L72.1,46.6c-4.1,0.7-7.9,2.2-11.2,4.3l22.4,21l-23.7-0.7l-4.1,9.4L82.8,108c4.1-0.7,7.9-2.2,11.2-4.3l-22.4-21
			l23.7,0.7L99.4,74z"/>
		<path d="M100.1,74.7L72.8,47.3c-4.1,0.7-7.9,2.2-11.2,4.3l22.4,21L60.2,72l-4.1,9.4l27.4,27.4c4.1-0.7,7.9-2.2,11.2-4.3l-22.4-21
			l23.7,0.7L100.1,74.7z"/>
		<path d="M100.8,75.4L73.5,48c-4.1,0.7-7.9,2.2-11.2,4.3l22.4,21l-23.7-0.7l-4.1,9.4l27.4,27.4c4.1-0.7,7.9-2.2,11.2-4.3l-22.4-21
			l23.7,0.7L100.8,75.4z"/>
		<path d="M101.5,76.1L74.2,48.7c-4.1,0.7-7.9,2.2-11.2,4.3l22.4,21l-23.7-0.7l-4.1,9.4l27.4,27.4c4.1-0.7,7.9-2.2,11.2-4.3
			l-22.4-21l23.7,0.7L101.5,76.1z"/>
		<path d="M102.2,76.8L74.9,49.4c-4.1,0.7-7.9,2.2-11.2,4.3l22.4,21l-23.7-0.7l-4.1,9.4l27.4,27.4c4.1-0.7,7.9-2.2,11.2-4.3
			l-22.4-21l23.7,0.7L102.2,76.8z"/>
		<path d="M102.9,77.5L75.6,50.1c-4.1,0.7-7.9,2.2-11.2,4.3l22.4,21L63,74.8L59,84.2l27.4,27.4c4.1-0.7,7.9-2.2,11.2-4.3l-22.4-21
			l23.7,0.7L102.9,77.5z"/>
		<path d="M103.6,78.2L76.3,50.8c-4.1,0.7-7.9,2.2-11.2,4.3l22.4,21l-23.7-0.7l-4.1,9.4L87,112.2c4.1-0.7,7.9-2.2,11.2-4.3l-22.4-21
			l23.7,0.7L103.6,78.2z"/>
	</g>
</g>
<g>
	<path class="st2" d="M60.3,34.9L33.4,7.9c-4.1,0.7-7.9,2.1-11.3,4.3l34.2,32.1L60.3,34.9z"/>
	<path class="st2" d="M16.4,41.6l26.9,26.9c4.1-0.7,7.9-2.1,11.3-4.3L20.4,32.2L16.4,41.6z"/>
	<linearGradient id="SVGID_3_" gradientUnits="userSpaceOnUse" x1="33.1576" y1="43.4298" x2="43.5658" y2="33.0216">
		<stop  offset="0" style="stop-color:#F2F2F2"/>
		<stop  offset="3.930715e-02" style="stop-color:#F6F6F6"/>
		<stop  offset="0.1612" style="stop-color:#FDFDFD"/>
		<stop  offset="0.5" style="stop-color:#FFFFFF"/>
		<stop  offset="0.8388" style="stop-color:#FDFDFD"/>
		<stop  offset="0.9607" style="stop-color:#F6F6F6"/>
		<stop  offset="1" style="stop-color:#F2F2F2"/>
	</linearGradient>
	<polygon class="st3" points="20.4,32.2 32.6,43.6 56.3,44.3 44.1,32.9 	"/>
</g>
</svg>
